<?xml version="1.0" standalone="no"?>
<!DOCTYPE svg PUBLIC "-//W3C//DTD SVG 20010904//EN"
 "http://www.w3.org/TR/2001/REC-SVG-20010904/DTD/svg10.dtd">
<svg version="1.0" xmlns="http://www.w3.org/2000/svg"
 width="1888.000000pt" height="1888.000000pt" viewBox="0 0 1888.000000 1888.000000"
 preserveAspectRatio="xMidYMid meet">

<g transform="translate(0.000000,1888.000000) scale(0.100000,-0.100000)"
fill="#000000" stroke="none">
<path d="M11435 14053 c-201 -24 -563 -168 -800 -318 -133 -84 -297 -210 -413
-320 l-103 -98 -52 7 c-405 51 -844 48 -1172 -9 -749 -131 -1380 -471 -1859
-1005 -279 -309 -477 -615 -651 -1005 -32 -71 -67 -138 -77 -147 -10 -9 -58
-38 -106 -64 -237 -129 -454 -294 -672 -513 -284 -284 -457 -530 -520 -740
-39 -128 -12 -210 106 -320 131 -121 367 -243 619 -318 l60 -18 -3 -156 c-4
-171 11 -422 32 -533 l14 -70 -72 -74 c-39 -41 -97 -92 -128 -113 -32 -22 -58
-44 -58 -49 0 -23 47 -31 169 -29 70 1 133 -1 138 -4 6 -4 14 -29 18 -56 l7
-50 -67 -76 c-95 -109 -161 -215 -192 -309 -26 -77 -27 -91 -29 -297 l-2 -216
-37 -55 c-55 -84 -66 -132 -72 -313 -4 -127 -9 -172 -26 -220 -30 -86 -30
-353 1 -503 47 -229 127 -400 251 -534 149 -161 315 -251 546 -294 210 -40
716 -16 1190 55 72 11 150 21 175 23 l45 3 -3 -86 c-3 -75 -2 -87 14 -93 57
-22 687 -69 1499 -113 441 -23 577 -26 1155 -26 826 0 1180 17 1620 79 131 18
189 31 197 42 7 8 10 19 7 23 -3 5 30 26 73 49 43 22 97 54 121 72 40 30 45
31 75 19 185 -76 262 -91 459 -91 84 1 187 7 228 14 179 32 304 90 323 150 15
46 -14 74 -144 138 -98 47 -123 64 -160 109 -24 29 -73 83 -108 121 l-64 68
29 22 c89 67 196 215 245 340 53 136 -10 177 -199 128 -84 -21 -231 -76 -247
-91 -19 -19 -35 -8 -59 39 l-24 48 81 65 c45 35 114 94 153 132 l72 68 158
-31 c191 -38 319 -74 479 -136 179 -70 224 -81 260 -63 57 28 70 68 69 219 -1
282 -94 543 -348 977 l-48 82 36 123 c127 440 160 683 155 1123 l-4 280 90 7
c208 17 468 74 631 139 267 105 338 177 320 325 -30 253 -392 727 -808 1057
-167 133 -324 232 -548 348 -59 31 -69 41 -104 104 -122 219 -304 479 -462
660 -300 344 -724 691 -1138 932 -61 36 -117 70 -124 77 -10 10 -9 25 7 77 97
315 191 795 191 975 0 136 -42 210 -133 233 -42 10 -212 13 -282 4z m-1500
-788 c200 -24 345 -47 341 -54 -2 -3 17 -6 43 -7 56 -1 262 -51 432 -104 116
-37 276 -99 422 -164 l58 -26 -16 -30 c-9 -17 -11 -30 -5 -30 13 0 13 -27 0
-35 -6 -3 -7 1 -4 10 5 11 2 14 -9 9 -17 -6 -13 -29 11 -56 21 -24 41 -22 63
6 14 18 27 23 54 21 26 -1 32 1 25 10 -5 6 -6 16 -2 20 4 5 -6 1 -21 -9 -29
-18 -29 -17 -22 4 5 16 2 23 -14 27 -12 3 -21 10 -21 15 0 5 -10 7 -22 4 -13
-3 -17 -3 -10 0 6 3 9 10 6 16 -12 20 178 -85 294 -162 90 -60 146 -107 242
-206 173 -177 348 -402 333 -428 -3 -6 -2 -7 2 -3 20 18 175 -264 258 -469 83
-203 149 -450 191 -717 30 -186 56 -680 37 -692 -7 -3 -11 3 -12 17 -1 16 -4
11 -11 -16 -8 -30 -8 -40 3 -46 9 -6 5 -11 -14 -15 -15 -4 -25 -11 -22 -15 3
-4 -2 -10 -10 -14 -10 -4 -15 1 -15 15 0 12 -5 19 -12 16 -7 -2 -13 -17 -13
-33 0 -17 -5 -28 -12 -27 -7 2 -10 -6 -8 -17 2 -11 0 -20 -6 -20 -5 0 0 -9 11
-20 11 -11 20 -27 20 -36 0 -8 5 -12 10 -9 6 3 10 3 10 -2 0 -4 5 -15 10 -23
8 -13 11 -12 24 5 10 13 15 15 16 6 0 -11 3 -11 17 0 15 13 15 12 5 -8 -7 -12
-12 -32 -11 -45 0 -17 5 -11 19 22 19 44 19 45 19 13 1 -17 -3 -35 -9 -38 -12
-8 -13 -25 -1 -25 4 0 13 15 19 33 9 31 10 31 11 6 2 -55 43 -236 75 -331 19
-55 30 -96 25 -91 -4 4 -18 40 -31 78 -13 39 -28 72 -33 75 -6 3 -9 8 -8 13 2
4 -2 7 -7 7 -15 0 -12 -16 5 -30 17 -14 21 -35 4 -24 -7 4 -6 -2 2 -17 12 -23
11 -23 -6 -9 -12 9 -16 10 -11 2 4 -7 9 -29 12 -50 2 -26 -10 -3 -40 73 -23
61 -66 161 -94 224 -28 63 -48 119 -45 124 3 6 2 7 -4 4 -12 -8 -46 61 -37 75
4 6 3 8 -2 5 -6 -3 -28 27 -50 66 -97 171 -150 257 -215 350 -38 54 -66 103
-63 109 4 6 2 8 -4 4 -6 -3 -44 38 -90 96 -43 57 -102 130 -130 163 -28 32
-48 63 -45 69 3 5 2 6 -4 3 -12 -7 -110 103 -105 118 2 5 0 6 -4 2 -10 -9
-155 133 -148 145 3 5 1 7 -4 6 -15 -4 -172 144 -165 155 3 6 1 7 -4 4 -6 -4
-57 33 -114 81 -180 151 -372 285 -575 401 -49 28 -90 56 -90 61 -1 6 -2 19
-3 30 0 11 -5 20 -10 20 -4 0 -6 -12 -3 -26 5 -25 4 -25 -94 24 -246 123 -568
231 -904 303 -74 16 -115 27 -90 25 25 -3 52 0 60 5 12 8 10 9 -7 4 -18 -5
-21 -2 -19 19 2 17 -6 33 -25 51 -16 14 -32 25 -36 25 -25 0 -73 13 -73 20 0
11 -53 2 -60 -11 -12 -19 -140 65 -140 92 0 5 -5 9 -11 9 -5 0 -7 -6 -4 -12 4
-7 -1 -4 -10 7 -13 17 -28 20 -96 20 -48 0 -83 -5 -87 -12 -4 -6 -26 -16 -49
-23 -24 -7 -43 -17 -43 -22 0 -4 -7 -8 -15 -8 -9 0 -18 -7 -21 -15 -4 -8 -13
-15 -21 -15 -12 0 -12 -2 -1 -13 7 -8 20 -16 28 -20 8 -3 1 -6 -17 -6 -32 -1
-64 -34 -48 -49 4 -4 111 -9 238 -12 l232 -5 -255 -7 c-364 -9 -557 -42 -887
-149 -116 -38 -186 -66 -355 -143 -62 -27 -80 -28 -26 0 30 16 31 17 13 30
-22 16 -12 19 15 4 13 -7 21 -7 26 2 4 6 3 8 -3 5 -6 -4 -13 0 -17 8 -3 8 -1
17 4 20 16 10 12 35 -5 35 -17 0 -20 16 -5 25 6 4 8 11 4 16 -4 6 -10 7 -17 0
-8 -6 -21 -5 -37 4 -14 8 -19 14 -12 15 7 0 12 15 12 40 0 39 -1 40 -36 40
-21 0 -33 -4 -29 -10 3 -6 -3 -23 -14 -39 -12 -17 -17 -31 -11 -33 6 -2 -8 -4
-32 -4 l-43 -2 35 29 c25 22 30 29 16 29 -9 0 -26 -5 -37 -11 -18 -9 -19 -7
-13 16 5 20 3 24 -9 19 -9 -3 -17 -15 -19 -27 -5 -37 -33 -27 -32 11 1 17 -2
32 -7 32 -9 0 -12 -13 -10 -42 1 -10 -3 -18 -8 -18 -6 0 -11 -11 -11 -24 0
-29 -14 -40 -37 -32 -13 5 -12 10 8 27 15 13 18 20 9 19 -31 -5 -40 1 -40 23
0 18 -2 19 -11 7 -8 -12 -10 -11 -7 5 2 11 10 20 18 20 8 0 16 10 18 23 2 13
10 22 22 22 29 0 41 44 14 54 -8 3 -12 2 -9 -3 3 -5 1 -12 -4 -15 -10 -7 -54
48 -45 57 3 3 0 8 -7 13 -8 4 -10 3 -5 -4 4 -7 3 -12 -3 -12 -5 0 -13 5 -16
10 -4 6 -10 8 -15 5 -5 -3 -19 -1 -30 5 -18 10 -19 14 -8 28 10 14 9 13 -9 -1
-13 -11 -23 -14 -27 -8 -9 15 -36 2 -37 -18 0 -12 -2 -12 -6 -2 -4 10 -7 10
-13 1 -4 -7 -13 -11 -20 -8 -29 9 232 234 415 356 412 275 947 467 1455 521
58 6 119 13 135 15 70 10 568 -4 690 -19z m1365 -425 c0 -5 -5 -10 -11 -10 -5
0 -7 5 -4 10 3 6 8 10 11 10 2 0 4 -4 4 -10z m-10 -24 c0 -3 -4 -8 -10 -11 -5
-3 -10 -1 -10 4 0 6 5 11 10 11 6 0 10 -2 10 -4z m-4074 -451 c0 -14 -5 -25
-10 -25 -5 0 -2 -7 5 -17 13 -15 12 -15 -7 -5 -16 9 -21 8 -21 -3 0 -8 4 -12
8 -10 16 11 18 -28 2 -53 -10 -15 5 -3 31 26 74 80 160 116 201 82 23 -19 18
-51 -14 -101 -78 -124 -241 -186 -241 -92 0 13 -4 23 -9 23 -11 0 -2 -51 13
-69 9 -12 8 -13 -7 -8 -11 4 -20 1 -23 -8 -4 -8 -10 -12 -15 -9 -5 3 -6 -2 -3
-11 4 -9 -3 -23 -17 -35 -13 -10 -20 -19 -15 -20 5 0 3 -7 -4 -16 -12 -13 -10
-15 11 -12 13 2 29 7 36 11 8 5 11 1 10 -13 -1 -11 -7 -20 -14 -20 -7 0 -13
-8 -13 -19 0 -10 -7 -24 -15 -31 -8 -7 -15 -21 -15 -31 0 -11 7 -19 15 -19 8
0 15 6 15 13 0 9 2 9 8 0 5 -7 21 -11 40 -9 18 3 32 2 32 0 0 -12 -30 -34 -44
-34 -9 0 -16 -7 -16 -16 0 -11 6 -14 20 -9 22 7 26 -5 9 -22 -6 -6 -8 -16 -5
-22 12 -18 33 -12 39 10 7 24 33 20 31 -5 -2 -20 19 -21 35 -2 11 13 15 13 31
-1 20 -18 16 -43 -7 -43 -13 0 -13 -3 -3 -15 9 -11 17 -12 31 -4 11 5 16 15
13 21 -4 6 -3 8 3 5 6 -4 28 6 50 22 40 29 93 59 81 46 -4 -4 -53 -40 -110
-81 -84 -60 -105 -71 -118 -61 -13 10 -13 10 -2 -4 11 -15 6 -22 -40 -58 -29
-23 -80 -69 -114 -102 -33 -32 -61 -53 -61 -45 0 8 5 14 11 13 6 -1 10 4 8 11
-1 8 2 11 8 7 5 -3 10 -1 10 5 0 13 26 41 32 35 2 -2 9 4 16 15 7 12 8 21 2
25 -6 4 -10 3 -9 -2 4 -22 -3 -24 -21 -8 -16 14 -23 16 -32 7 -15 -15 -52 -16
-43 -1 4 6 13 8 21 5 8 -3 14 1 14 10 0 12 -4 12 -20 4 -14 -7 -26 -8 -39 0
-30 15 -71 13 -71 -5 0 -16 -20 -16 -32 0 -4 6 -8 2 -8 -7 0 -10 -4 -18 -10
-18 -5 0 -10 7 -10 15 0 9 -14 17 -38 21 -33 5 -40 11 -55 49 -10 23 -25 51
-33 61 -9 11 -13 14 -10 9 2 -6 -4 -11 -14 -12 -17 -1 -15 4 12 50 61 106 181
276 190 271 4 -3 7 -1 6 4 -4 13 98 140 209 260 52 56 96 102 98 102 1 0 2
-11 1 -25z m2167 -72 c-13 -2 -33 -2 -45 0 -13 2 -3 4 22 4 25 0 35 -2 23 -4z
m85 -10 c-10 -2 -26 -2 -35 0 -10 3 -2 5 17 5 19 0 27 -2 18 -5z m-253 -43
c840 -54 1653 -442 2341 -1117 510 -500 847 -1018 1079 -1660 67 -183 165
-557 150 -571 -8 -9 -164 139 -233 221 -143 168 -240 308 -283 406 -134 308
-310 616 -509 890 -177 243 -339 421 -563 618 -460 405 -1094 740 -1602 846
-238 50 -338 61 -570 61 -235 1 -358 -13 -545 -59 -164 -40 -540 -178 -526
-192 2 -3 15 0 28 7 49 24 -15 -20 -91 -62 -60 -33 -75 -38 -83 -27 -8 11 -9
10 -4 -4 4 -13 1 -17 -10 -15 -9 2 -23 -7 -31 -20 -12 -17 11 -8 108 42 104
54 335 156 353 156 3 0 -9 -21 -28 -47 -18 -27 -93 -144 -165 -260 -73 -117
-135 -214 -139 -217 -4 -2 -56 16 -117 39 -60 24 -145 54 -188 66 -67 20 -79
21 -91 9 -13 -15 -66 -138 -166 -385 -60 -147 -64 -154 -88 -150 -9 2 -80 14
-157 26 -77 12 -142 23 -144 25 -2 2 15 24 38 50 22 25 38 51 34 57 -3 5 -2 7
4 4 5 -3 30 14 54 40 28 29 35 40 18 29 -14 -9 -28 -14 -31 -11 -6 7 -106
-105 -223 -250 -172 -213 -322 -452 -439 -701 -56 -117 -59 -122 -119 -161
-66 -43 -187 -107 -192 -101 -9 8 145 381 219 533 201 409 416 715 716 1015
286 286 588 491 960 650 340 145 621 206 1060 228 14 1 93 -3 175 -8z m-1805
-45 c16 10 32 -23 21 -42 -6 -10 -11 -14 -11 -10 0 4 -12 -5 -26 -20 -17 -19
-27 -24 -31 -15 -2 6 -9 10 -14 6 -5 -3 -9 0 -9 6 0 7 8 9 19 5 13 -4 23 2 35
20 9 14 12 25 6 25 -6 0 -8 5 -5 10 3 6 1 10 -5 10 -6 0 -10 -8 -8 -17 2 -10
-4 -19 -14 -21 -10 -2 -18 2 -18 8 0 16 44 51 48 39 2 -5 7 -7 12 -4z m120
-37 c0 -19 -16 -5 -17 14 -2 18 0 20 7 8 5 -8 10 -18 10 -22z m-370 -63 c0 -8
-4 -15 -10 -15 -5 0 -7 7 -4 15 4 8 8 15 10 15 2 0 4 -7 4 -15z m303 -9 c-21
-28 -24 -28 -16 2 3 12 12 22 20 22 11 0 10 -5 -4 -24z m57 14 c0 -5 -2 -10
-4 -10 -3 0 -8 5 -11 10 -3 6 -1 10 4 10 6 0 11 -4 11 -10z m125 -148 c-3 -3
-11 0 -18 7 -9 10 -8 11 6 5 10 -3 15 -9 12 -12z m75 13 c0 -2 -10 -9 -22 -15
-22 -11 -22 -10 -4 4 21 17 26 19 26 11z m-66 -28 c21 5 21 5 1 -9 -11 -8 -42
-27 -68 -42 -43 -25 -47 -25 -35 -7 7 12 18 21 24 21 7 0 15 7 18 16 3 9 11
12 18 8 8 -5 7 0 -2 11 -14 17 -14 18 4 8 10 -6 28 -8 40 -6z m-487 -3 c-3 -3
-12 -4 -19 -1 -8 3 -5 6 6 6 11 1 17 -2 13 -5z m1978 -63 c-6 -4 -65 -45 -132
-90 -66 -45 -156 -112 -200 -149 -43 -37 -96 -81 -117 -98 l-40 -31 -60 48
c-34 26 -106 86 -161 133 -55 47 -106 86 -112 86 -27 0 -11 18 20 23 17 3 97
19 177 36 80 16 186 34 235 39 118 12 402 14 390 3z m300 -37 c233 -43 390
-90 566 -171 73 -33 98 -53 67 -53 -12 0 -134 -65 -395 -207 -66 -37 -95 -48
-101 -39 -6 6 -62 98 -126 204 -65 106 -133 215 -152 241 -39 55 -41 61 -16
55 9 -2 80 -15 157 -30z m-1929 11 c-11 -8 -25 -15 -30 -15 -6 1 0 7 14 15 32
19 40 18 16 0z m-856 -216 c0 -5 -4 -8 -9 -5 -5 3 -12 -4 -15 -17 -3 -12 -15
-33 -27 -47 -17 -21 -16 -16 6 28 23 47 45 68 45 41z m3710 -125 c80 -40 199
-108 265 -151 215 -139 255 -173 206 -173 -10 0 -107 -27 -215 -60 -254 -77
-246 -76 -272 -20 -24 51 -86 223 -137 383 -41 128 -55 126 153 21z m-3300 62
c0 -2 -8 -10 -17 -17 -16 -13 -17 -12 -4 4 13 16 21 21 21 13z m-484 -51 c-3
-8 -2 -15 2 -15 4 0 13 -14 19 -30 9 -23 16 -28 29 -23 11 4 15 3 11 -4 -4 -6
9 -18 28 -27 19 -9 35 -21 35 -25 0 -4 11 -13 25 -19 14 -6 25 -18 25 -26 0
-12 28 -29 52 -31 3 0 10 -3 14 -7 13 -14 37 -8 63 15 14 12 -7 -14 -46 -58
-39 -44 -97 -114 -128 -155 -32 -41 -66 -87 -78 -102 -23 -31 -43 -28 -26 4
10 18 9 20 -5 15 -9 -4 -16 -1 -16 5 0 7 -5 6 -15 -2 -11 -9 -15 -9 -15 -1 0
6 10 16 23 21 12 5 16 9 9 9 -7 1 -21 -5 -33 -11 -17 -11 -22 -10 -33 4 -11
15 -17 16 -39 5 -15 -6 -27 -15 -27 -19 0 -5 -9 -8 -20 -8 -11 0 -20 6 -20 13
0 23 -22 38 -37 26 -7 -7 -13 -8 -13 -4 0 26 205 465 217 465 3 0 3 -7 -1 -15z
m4564 -540 c99 -87 325 -313 319 -320 -3 -3 -270 -31 -364 -38 -28 -2 -30 1
-48 58 -18 59 -107 439 -107 457 0 12 73 -45 200 -157z m-4770 71 c0 -3 -4 -8
-10 -11 -5 -3 -10 -1 -10 4 0 6 5 11 10 11 6 0 10 -2 10 -4z m-34 -71 l-14
-45 29 0 c32 0 57 -33 41 -53 -6 -7 -12 -23 -14 -36 -4 -29 -56 -85 -80 -87
-10 -1 -18 3 -18 8 0 5 -5 6 -11 2 -6 -3 -3 8 6 26 12 24 13 31 3 27 -7 -2
-12 -9 -11 -15 1 -5 -4 -16 -12 -22 -8 -7 -15 -10 -15 -7 0 11 37 87 41 83 2
-2 5 8 5 22 1 27 48 142 58 142 3 0 -1 -20 -8 -45z m68 -20 c-3 -8 -12 -11
-20 -8 -20 7 -17 18 5 20 13 1 18 -3 15 -12z m6801 -50 c38 -8 102 -30 142
-50 195 -92 413 -288 390 -349 -10 -26 -96 -20 -201 14 -198 66 -410 192 -484
290 -38 49 -38 79 -2 97 33 17 69 16 155 -2z m-6720 -106 c-46 -74 -67 -102
-45 -59 20 38 79 130 84 130 3 0 -15 -32 -39 -71z m-80 52 c3 -5 1 -12 -5 -16
-5 -3 -10 1 -10 9 0 18 6 21 15 7z m440 -126 c-13 -33 -42 -124 -66 -202 l-42
-142 -76 -27 c-42 -15 -82 -32 -89 -37 -42 -32 -2 44 120 228 64 96 172 244
175 241 1 -1 -8 -29 -22 -61z m-597 -14 c-2 -21 -9 -44 -15 -50 -7 -7 -13 -9
-13 -4 0 4 -7 -2 -16 -13 -17 -21 -17 -19 10 64 20 59 38 60 34 3z m67 11 c-3
-3 -11 0 -18 7 -9 10 -8 11 6 5 10 -3 15 -9 12 -12z m108 -27 c-3 -9 -8 -14
-10 -11 -3 3 -2 9 2 15 9 16 15 13 8 -4z m-58 -105 c-9 -16 -18 -30 -21 -30
-2 0 2 14 11 30 9 17 18 30 21 30 2 0 -2 -13 -11 -30z m5325 -180 c68 -85 249
-343 244 -348 -3 -4 -279 36 -306 44 -10 3 -20 15 -23 27 -6 24 -55 415 -55
432 1 12 55 -49 140 -155z m2212 11 c56 -36 85 -82 63 -101 -20 -17 -51 -4
-101 42 -41 38 -53 65 -37 81 12 12 28 7 75 -22z m-5443 -85 c-7 -14 -9 -29
-6 -32 4 -4 33 1 65 10 111 31 107 34 126 -106 48 -368 60 -513 60 -783 1
-220 -2 -288 -17 -365 -41 -217 -84 -349 -129 -397 -21 -23 -17 -43 9 -43 8 0
43 14 77 32 90 47 192 155 245 261 l44 85 32 -91 c17 -51 46 -120 63 -154 37
-73 42 -145 17 -252 -17 -72 -71 -181 -90 -181 -17 0 -38 28 -60 78 -41 94
-158 154 -400 203 -202 41 -368 59 -632 66 l-231 6 -6 30 c-3 16 -6 114 -6
217 l0 188 40 16 c158 63 478 59 677 -10 73 -25 77 -26 90 -8 20 27 17 34 -32
80 -125 121 -468 133 -690 25 -68 -33 -74 -35 -70 -16 2 11 9 54 15 95 16 112
64 313 106 441 38 119 150 392 183 445 21 35 73 54 146 54 44 0 47 2 43 23 -4
23 -4 23 49 13 l54 -10 50 55 49 54 0 -38 c0 -48 13 -47 80 3 29 22 55 38 57
36 2 -2 -2 -15 -8 -30z m-2382 -88 c-3 -8 -6 -5 -6 6 -1 11 2 17 5 13 3 -3 4
-12 1 -19z m6530 -140 c-2 -13 -4 -5 -4 17 -1 22 1 32 4 23 2 -10 2 -28 0 -40z
m-110 20 c-3 -8 -6 -5 -6 6 -1 11 2 17 5 13 3 -3 4 -12 1 -19z m120 -100 c-3
-8 -6 -5 -6 6 -1 11 2 17 5 13 3 -3 4 -12 1 -19z m-2180 -656 c34 -48 85 -116
114 -151 31 -38 44 -61 33 -57 -10 4 -67 15 -127 26 -60 10 -111 20 -113 23
-12 12 -34 121 -49 237 -8 69 -18 141 -21 160 -4 28 5 18 48 -58 30 -51 82
-132 115 -180z m-4327 142 c30 -5 58 -7 63 -6 10 3 11 6 -23 -94 -78 -227
-131 -475 -134 -629 l-3 -101 -59 -87 c-48 -71 -60 -83 -66 -67 -16 43 -29
307 -19 376 21 138 98 488 127 577 14 42 19 48 38 43 11 -3 46 -8 76 -12z
m3849 -369 c-15 -5 -31 -13 -35 -17 -16 -17 -19 -4 -16 84 l4 93 37 -75 38
-75 -28 -10z m551 -76 c25 -5 74 -14 110 -20 l65 -12 165 -167 c91 -92 190
-187 220 -210 39 -31 48 -41 30 -37 -34 9 -300 35 -432 43 l-107 6 -36 53
c-54 82 -100 190 -140 333 -6 20 -3 22 37 22 24 -1 63 -5 88 -11z m2297 -41
c-3 -7 -5 -2 -5 12 0 14 2 19 5 13 2 -7 2 -19 0 -25z m-2756 0 c38 -71 247
-290 317 -331 18 -11 32 -21 30 -22 -2 -2 -77 -8 -168 -15 -91 -6 -223 -20
-294 -31 -71 -10 -130 -19 -130 -19 -1 0 10 48 25 108 14 59 34 151 44 205
l19 97 33 0 c25 0 31 -4 27 -15 -7 -17 5 -19 26 -4 13 9 13 11 1 16 -10 4 -5
10 15 19 40 17 42 17 55 -8z m-2677 -73 c-16 -13 -31 -21 -33 -19 -3 2 6 27
20 56 l24 51 9 -32 c8 -29 6 -35 -20 -56z m65 -109 c12 -46 33 -107 46 -135
l24 -51 -22 0 c-12 -1 -74 -7 -137 -14 -63 -7 -116 -12 -118 -11 -3 3 45 135
79 217 23 54 44 72 94 77 6 1 21 -37 34 -83z m3875 -208 c25 -32 45 -58 43
-58 -2 0 -18 5 -35 11 -22 8 -35 23 -51 59 -35 81 -32 80 43 -12z m-1694 -95
c0 0 -20 -13 -43 -26 -86 -51 -137 -134 -137 -224 0 -8 -6 -13 -12 -10 -7 2
-38 10 -70 17 l-56 13 49 38 c51 41 191 230 211 286 l12 33 23 -62 c12 -35 23
-64 23 -65z m-2824 -14 c49 -13 54 -21 21 -36 -82 -38 -128 -114 -135 -225 -4
-70 -7 -79 -36 -107 l-31 -31 -75 26 c-66 23 -86 26 -170 22 -52 -3 -111 -12
-130 -20 -34 -15 -33 -15 61 -15 203 -1 318 -81 384 -268 34 -98 36 -232 3
-262 -34 -30 -131 -75 -124 -56 3 8 6 35 6 59 0 41 2 44 28 45 15 0 43 7 62
14 l35 13 -67 1 -66 1 -13 38 c-50 155 -161 247 -289 240 -29 -2 -55 -8 -57
-13 -2 -6 31 -21 73 -33 66 -20 84 -30 128 -76 78 -80 100 -132 104 -244 l4
-94 -45 -41 c-24 -23 -63 -53 -87 -66 l-43 -23 17 23 c23 33 21 129 -3 177
-56 110 -224 199 -335 178 -53 -10 -44 -23 22 -29 66 -5 108 -24 170 -74 84
-68 112 -141 92 -234 -12 -58 -28 -75 -94 -103 -34 -14 -37 -14 -43 2 -22 67
-50 107 -91 133 -50 32 -88 37 -117 15 -17 -12 -16 -14 17 -25 43 -14 113 -73
133 -112 8 -15 15 -40 15 -55 0 -26 1 -27 44 -21 24 4 62 13 84 20 l41 14 33
-66 c29 -59 32 -75 32 -146 -1 -51 -7 -94 -17 -119 -24 -54 -21 -63 9 -35 50
45 63 93 54 187 -5 45 -16 96 -24 114 -9 17 -16 36 -16 41 0 6 -7 18 -16 28
-15 17 -11 21 67 74 46 30 109 75 139 100 50 41 153 85 167 71 14 -14 44 19
54 60 9 35 23 54 63 88 52 44 87 66 105 66 5 0 15 -26 21 -57 7 -32 26 -94 42
-137 l31 -79 -21 -16 c-17 -13 -23 -34 -31 -106 -15 -144 -67 -252 -167 -351
-34 -33 -91 -76 -126 -94 -57 -29 -65 -37 -65 -62 0 -43 -32 -79 -104 -115
-125 -63 -320 -79 -472 -39 -88 24 -199 81 -249 128 -40 38 -48 53 -68 128
-44 166 -54 239 -54 415 0 190 13 263 66 370 65 130 190 269 355 393 45 34
119 104 165 154 103 116 144 151 230 194 114 57 216 75 304 53z m5991 -2 c29
-1 53 -3 53 -5 0 -1 11 -73 25 -160 20 -126 25 -186 23 -297 l-3 -140 -48 60
c-26 33 -67 98 -91 145 -36 71 -47 106 -64 210 -12 69 -25 136 -28 149 -7 24
-7 24 13 5 11 -10 18 -22 16 -26 -2 -5 1 -8 8 -8 7 0 9 -3 6 -7 -4 -3 -2 -12
4 -20 11 -13 119 -19 131 -7 10 10 -77 94 -98 94 -10 0 -26 5 -34 10 -11 8 -9
9 10 5 14 -3 49 -6 77 -8z m-5882 -97 c3 -6 -1 -7 -9 -4 -18 7 -21 14 -7 14 6
0 13 -4 16 -10z m-873 -267 l-47 -41 -5 26 c-5 23 0 29 31 43 20 10 40 22 44
29 6 9 10 9 16 -1 6 -10 -5 -26 -39 -56z m5483 -434 c-22 -154 -49 -251 -98
-354 -51 -108 -143 -235 -197 -273 -21 -15 -38 -31 -36 -37 5 -18 166 -9 249
14 99 27 242 94 340 158 70 47 79 50 124 46 39 -4 53 -1 68 13 18 19 18 19
-18 22 -20 2 -37 5 -37 8 0 3 40 50 89 105 50 56 113 137 142 180 29 43 56 76
60 74 3 -3 10 -22 14 -42 10 -56 65 -222 87 -266 l19 -38 -25 -43 c-88 -150
-277 -284 -436 -309 -79 -12 -207 2 -222 25 -6 10 -17 1 -45 -32 -80 -99 -232
-238 -337 -308 -341 -230 -880 -397 -1486 -463 -157 -18 -691 -18 -850 -1
-342 37 -738 123 -1010 219 -487 172 -789 402 -839 641 -9 45 -16 202 -8 202
1 0 24 -7 51 -15 78 -24 85 -8 26 60 -51 58 -52 81 -2 33 95 -91 218 -141 424
-172 365 -54 818 -11 1039 100 25 13 72 46 103 75 47 43 68 73 115 170 32 64
68 150 81 191 20 66 27 76 69 104 113 77 196 93 306 59 105 -33 127 -59 228
-259 81 -161 97 -187 161 -251 47 -46 95 -83 141 -107 246 -126 833 -154 1208
-58 108 27 163 57 238 127 52 50 77 83 109 149 44 89 144 379 157 455 16 91
15 -90 -2 -202z m1190 136 c39 -13 94 -27 124 -31 l54 -7 -7 -76 c-22 -249
-131 -570 -261 -773 -129 -200 -300 -377 -483 -499 -116 -78 -312 -179 -346
-179 -62 1 -177 87 -206 155 l-17 39 91 41 c276 125 482 321 666 633 23 39 44
72 46 72 2 0 13 -19 25 -41 18 -36 23 -40 35 -28 8 9 18 51 23 99 7 69 23 121
85 281 68 175 104 307 89 332 -7 11 8 8 82 -18z m-5698 -1217 c48 -34 122 -80
163 -102 l75 -41 -100 -11 c-55 -6 -116 -14 -137 -18 -35 -6 -37 -6 -48 31 -7
21 -23 56 -35 79 -18 31 -22 50 -18 82 3 23 7 42 9 42 2 0 43 -28 91 -62z
m4523 -180 c0 -7 -13 -13 -29 -14 -16 -1 -37 -8 -46 -18 -9 -9 -21 -16 -27
-16 -6 0 -8 -3 -5 -7 4 -3 2 -12 -4 -19 -7 -8 -6 -14 2 -20 8 -4 9 -3 5 4 -4
7 -1 12 8 12 11 0 16 -9 16 -30 0 -16 5 -30 11 -30 5 0 7 -4 4 -10 -3 -5 1
-10 9 -10 9 0 16 -5 16 -11 0 -8 6 -7 18 2 15 13 16 12 3 -3 -11 -15 -11 -18
1 -18 8 0 25 -12 39 -27 15 -16 -11 -3 -66 34 -49 33 -110 71 -135 83 -80 40
-80 41 41 71 61 16 114 31 117 34 10 9 22 5 22 -7z m190 -192 c-20 -8 -51 -16
-70 -19 -23 -4 -17 0 20 13 61 21 105 26 50 6z m-113 -32 c-3 -3 -12 -4 -19
-1 -8 3 -5 6 6 6 11 1 17 -2 13 -5z m-1823 -146 c-132 -94 -267 -207 -413
-346 -85 -81 -156 -142 -158 -136 -2 6 -29 54 -59 105 -31 52 -92 165 -135
252 l-79 157 57 -7 c82 -11 685 -7 763 5 36 5 69 10 74 11 5 0 -17 -18 -50
-41z"/>
<path d="M8190 13000 c-9 -6 -10 -10 -3 -10 6 0 15 5 18 10 8 12 4 12 -15 0z"/>
<path d="M8225 13001 c-3 -5 -2 -12 3 -15 5 -3 9 1 9 9 0 17 -3 19 -12 6z"/>
<path d="M8180 12969 c0 -5 5 -7 10 -4 6 3 10 8 10 11 0 2 -4 4 -10 4 -5 0
-10 -5 -10 -11z"/>
<path d="M9274 12596 c-27 -27 -34 -42 -34 -74 0 -80 80 -133 149 -98 99 52
69 206 -41 206 -32 0 -47 -7 -74 -34z"/>
<path d="M10910 12570 c0 -16 -140 -172 -264 -295 -161 -160 -162 -161 -145
-181 12 -15 12 -17 -1 -12 -22 7 -24 37 -4 59 17 19 17 20 -1 13 -12 -5 -16
-4 -12 3 5 7 -1 9 -15 5 -14 -3 -19 -2 -14 6 4 7 13 12 21 12 8 0 17 5 21 12
4 7 3 8 -4 4 -7 -4 -12 -2 -12 4 0 6 -6 8 -12 4 -7 -4 -4 2 6 14 29 33 9 26
-37 -13 -22 -19 -47 -35 -54 -35 -7 0 -13 -5 -13 -11 0 -8 -4 -8 -13 0 -10 8
-14 7 -14 -4 0 -8 6 -15 14 -15 7 0 13 -4 13 -10 0 -5 -5 -10 -11 -10 -8 0 -8
-5 1 -15 7 -8 16 -13 20 -10 14 9 20 -26 8 -48 -10 -19 -9 -20 4 -9 13 10 18
8 32 -13 11 -16 22 -22 33 -18 10 4 14 2 10 -4 -4 -5 6 -15 21 -22 26 -11 26
-11 7 5 l-20 17 20 -8 c11 -4 26 -8 32 -8 10 0 10 -4 0 -16 -9 -12 -6 -12 16
2 16 10 31 16 35 13 3 -3 -1 -6 -9 -6 -8 0 -4 -6 9 -16 12 -8 26 -13 31 -10
12 8 61 -17 61 -30 0 -6 6 -17 14 -23 12 -10 13 -8 9 8 -6 22 11 29 23 9 5 -7
3 -8 -6 -3 -9 5 -11 4 -6 -3 5 -9 13 -9 28 -1 21 11 21 12 3 25 -15 12 -16 14
-3 14 10 0 18 12 22 33 7 33 38 74 72 93 19 11 20 15 23 54 0 11 8 20 16 20 8
0 15 8 15 17 0 14 -4 12 -25 -7 -14 -13 -25 -19 -25 -13 0 5 11 20 25 33 20
19 27 21 40 10 13 -10 15 -9 15 8 0 31 -16 36 -40 12 -11 -11 -25 -18 -30 -15
-6 3 -7 -1 -4 -9 3 -9 1 -17 -5 -17 -6 -1 -15 -2 -20 -3 -5 0 -18 -12 -30 -26
-40 -48 -21 -10 27 52 26 35 54 78 61 96 15 35 26 40 35 17 3 -8 12 -12 19 -9
10 3 13 17 10 47 -8 65 -7 107 2 175 7 54 6 62 -9 62 -9 0 -16 -5 -16 -10z
m-92 -234 c-24 -42 -83 -121 -131 -176 -63 -71 -87 -106 -83 -118 5 -14 3 -13
-9 2 -8 11 -15 16 -15 10 0 -5 -5 -1 -11 9 -6 9 -16 15 -22 11 -7 -4 13 15 43
42 84 73 195 193 232 250 48 75 46 58 -4 -30z m105 -9 c-5 -25 -7 -26 -18 -10
-14 19 -10 37 6 28 5 -4 9 -1 9 6 0 7 2 10 4 8 2 -2 2 -16 -1 -32z m-493 -157
c0 -5 -5 -10 -11 -10 -5 0 -7 5 -4 10 3 6 8 10 11 10 2 0 4 -4 4 -10z m320
-68 c0 -18 -37 -50 -74 -66 -53 -22 -55 -20 -10 10 21 15 47 35 57 45 19 21
27 24 27 11z m20 -30 c0 -5 -9 -17 -20 -27 -11 -10 -20 -13 -20 -7 0 7 5 12
10 12 6 0 10 7 10 15 0 8 5 15 10 15 6 0 10 -4 10 -8z"/>
<path d="M10580 12080 c-9 -6 -10 -10 -3 -10 6 0 15 5 18 10 8 12 4 12 -15 0z"/>
<path d="M11165 12551 c-3 -6 -3 -11 2 -11 11 0 -19 -20 -31 -20 -5 0 -3 7 5
16 11 14 9 15 -17 12 -22 -2 -29 -8 -30 -26 -1 -13 -6 -28 -11 -33 -7 -7 -4
-23 11 -49 20 -37 24 -39 65 -38 24 0 38 4 31 8 -8 5 -9 13 -4 21 5 8 7 22 6
31 -2 13 2 16 15 12 17 -5 17 -5 0 6 -13 8 -17 21 -15 43 3 30 -14 48 -27 28z
m-25 -131 c0 -5 -4 -10 -10 -10 -5 0 -10 5 -10 10 0 6 5 10 10 10 6 0 10 -4
10 -10z"/>
<path d="M8207 12530 c-52 -41 -55 -123 -5 -165 58 -49 142 -18 168 60 9 28 8
41 -5 70 -10 19 -22 35 -27 35 -5 0 -7 3 -4 8 2 4 -19 9 -48 10 -41 2 -58 -2
-79 -18z"/>
<path d="M7361 12496 c-17 -18 -19 -26 -10 -31 7 -5 10 -4 7 1 -3 5 0 14 7 21
8 7 15 8 17 3 2 -6 9 -6 18 0 13 8 12 10 -3 10 -10 0 -15 5 -12 10 11 18 -1
11 -24 -14z"/>
<path d="M7325 12439 c-4 -6 -5 -12 -2 -15 2 -3 7 2 10 11 7 17 1 20 -8 4z"/>
<path d="M7550 12440 c0 -5 7 -10 16 -10 8 0 12 5 9 10 -3 6 -10 10 -16 10 -5
0 -9 -4 -9 -10z"/>
<path d="M7600 12393 c0 -10 4 -14 8 -8 4 6 11 13 16 18 5 4 2 7 -7 7 -10 0
-17 -8 -17 -17z"/>
<path d="M7465 12390 c3 -5 12 -7 20 -3 21 7 19 13 -6 13 -11 0 -18 -4 -14
-10z"/>
<path d="M7525 12380 c4 -12 2 -20 -5 -20 -6 0 -8 5 -5 10 3 6 1 10 -5 10 -7
0 -9 -6 -6 -12 3 -7 9 -21 12 -30 4 -10 13 -18 21 -18 12 0 14 7 9 31 -3 17
-6 35 -6 40 0 5 -5 9 -11 9 -6 0 -8 -9 -4 -20z"/>
<path d="M10585 12367 c-13 -21 -15 -32 -7 -35 7 -2 12 -8 12 -14 0 -6 -6 -8
-13 -5 -8 3 -14 -5 -15 -21 -1 -14 -9 -33 -17 -42 -8 -9 -15 -21 -15 -27 0 -6
-6 -13 -12 -16 -7 -2 -10 -8 -5 -12 11 -13 49 12 82 55 17 21 33 36 36 34 3
-2 6 10 7 26 0 17 3 38 6 48 5 13 -1 22 -17 29 -21 10 -26 8 -42 -20z m0 -77
c3 -5 1 -10 -4 -10 -6 0 -11 5 -11 10 0 6 2 10 4 10 3 0 8 -4 11 -10z m-11
-45 c-4 -8 -11 -15 -16 -15 -6 0 -5 6 2 15 7 8 14 15 16 15 2 0 1 -7 -2 -15z"/>
<path d="M10517 12283 c-19 -21 -24 -33 -15 -33 13 0 55 58 46 64 -1 2 -16
-12 -31 -31z"/>
<path d="M7500 12258 c0 -9 -7 -18 -15 -22 -19 -7 -20 -36 -1 -36 13 0 31 58
21 68 -3 3 -5 -2 -5 -10z"/>
<path d="M7660 12250 c0 -5 5 -10 10 -10 6 0 10 5 10 10 0 6 -4 10 -10 10 -5
0 -10 -4 -10 -10z"/>
<path d="M7776 12175 c-4 -13 -2 -14 14 -5 23 13 26 20 6 20 -8 0 -16 -7 -20
-15z"/>
<path d="M11463 12128 c-15 -24 -77 -97 -138 -163 -155 -169 -185 -212 -156
-229 24 -15 164 122 233 228 53 82 48 57 -9 -39 -50 -86 -75 -123 -136 -198
l-40 -48 23 -24 c13 -14 20 -28 17 -32 -4 -3 -7 -1 -7 5 0 7 -4 12 -10 12 -5
0 -10 -9 -10 -20 0 -12 -7 -20 -17 -20 -10 0 -14 -4 -8 -8 15 -11 15 -42 -1
-42 -10 0 -7 -7 8 -22 14 -14 34 -22 55 -22 18 0 28 -3 23 -6 -5 -3 0 -12 12
-19 19 -12 20 -11 14 5 -6 17 -6 17 14 -1 11 -10 20 -23 20 -29 0 -6 -5 -4
-10 4 -8 12 -11 13 -19 1 -6 -9 -11 -10 -15 -2 -4 6 -17 16 -29 21 -14 7 -11
2 8 -12 16 -13 33 -23 37 -23 5 0 7 -3 6 -6 -5 -13 34 -48 48 -42 8 3 11 9 8
14 -3 5 3 6 12 2 11 -4 15 -3 10 5 -3 6 -2 13 3 16 18 11 5 -24 -15 -40 -10
-8 -13 -13 -6 -9 6 3 12 1 12 -4 0 -6 7 -11 15 -11 8 0 15 -5 15 -11 0 -5 5
-7 12 -3 7 5 9 2 5 -8 -4 -12 -1 -14 15 -10 15 4 17 7 6 14 -9 6 -6 7 10 3 14
-4 22 -2 22 5 0 8 10 10 25 8 15 -3 25 -1 25 7 0 6 -11 18 -25 25 -29 15 -33
30 -7 24 9 -3 26 1 36 9 25 19 33 142 9 151 -8 3 -12 10 -9 15 3 5 -3 11 -13
14 -14 3 -19 13 -17 36 1 20 -2 31 -11 31 -7 0 -13 -5 -13 -11 0 -15 -35 -7
-36 9 -4 36 -4 37 -14 22 -9 -13 -12 -12 -25 4 -8 11 -15 14 -15 8 0 -7 -4
-12 -9 -12 -4 0 -6 11 -4 24 4 21 2 24 -16 19 -12 -3 -26 -14 -32 -24 -5 -11
-17 -19 -27 -19 -15 0 -15 -2 -2 -11 13 -9 13 -10 0 -6 -8 2 -22 -6 -32 -17
-10 -12 -17 -16 -18 -10 0 5 16 26 36 45 103 98 182 262 200 412 8 70 -5 74
-43 15z m-198 -608 c3 -5 2 -10 -4 -10 -5 0 -13 5 -16 10 -3 6 -2 10 4 10 5 0
13 -4 16 -10z"/>
<path d="M7843 12082 c1 -12 6 -18 15 -15 7 3 10 9 5 12 -4 3 -11 10 -15 15
-4 4 -6 -1 -5 -12z"/>
<path d="M10363 12055 c0 -8 4 -12 9 -9 4 3 8 9 8 15 0 5 -4 9 -8 9 -5 0 -9
-7 -9 -15z"/>
<path d="M10544 11958 c-4 -7 -4 -10 0 -6 5 4 17 -2 29 -13 19 -18 37 -25 37
-15 0 3 -13 14 -29 26 -23 15 -31 17 -37 8z"/>
<path d="M10646 11905 c4 -8 10 -15 15 -15 4 0 6 7 3 15 -4 8 -10 15 -15 15
-4 0 -6 -7 -3 -15z"/>
<path d="M11410 11800 c-8 -5 -11 -10 -6 -10 5 0 3 -7 -4 -15 -9 -10 -9 -15
-1 -15 6 0 11 5 11 11 0 8 6 7 17 -2 15 -13 15 -12 5 7 -6 12 -8 24 -5 28 9 9
0 7 -17 -4z"/>
<path d="M11500 11335 c-6 -7 -18 -11 -26 -8 -21 8 -17 -11 9 -35 26 -24 41
-18 45 20 4 31 -11 44 -28 23z m12 -17 c-7 -7 -12 -8 -12 -2 0 14 12 26 19 19
2 -3 -1 -11 -7 -17z m-2 -30 c0 -12 -6 -9 -26 13 -19 22 -19 22 4 8 12 -8 22
-17 22 -21z"/>
<path d="M12421 11334 c0 -11 3 -14 6 -6 3 7 2 16 -1 19 -3 4 -6 -2 -5 -13z"/>
<path d="M11660 11230 c0 -5 5 -10 10 -10 6 0 10 5 10 10 0 6 -4 10 -10 10 -5
0 -10 -4 -10 -10z"/>
<path d="M11700 11221 c0 -12 6 -21 16 -21 9 0 14 7 12 17 -5 25 -28 28 -28 4z"/>
<path d="M11655 11151 c-3 -5 -2 -12 3 -15 5 -3 9 1 9 9 0 17 -3 19 -12 6z"/>
<path d="M11713 11077 c0 -7 9 -14 20 -14 11 -1 18 -1 16 0 -2 2 -11 8 -20 15
-12 9 -16 9 -16 -1z"/>
<path d="M11807 11036 c-14 -21 -14 -24 -2 -22 9 1 21 8 28 16 9 10 9 11 0 6
-7 -4 -13 -3 -13 3 0 5 6 12 13 14 7 4 8 6 1 6 -7 1 -19 -10 -27 -23z"/>
<path d="M11850 11025 c0 -8 5 -15 10 -15 6 0 10 7 10 15 0 8 -4 15 -10 15 -5
0 -10 -7 -10 -15z"/>
<path d="M11823 10975 c-3 -9 -3 -18 -1 -21 3 -3 8 4 11 16 6 23 -1 27 -10 5z"/>
<path d="M11895 10950 c5 -9 -6 -14 -26 -12 -3 1 -6 -6 -6 -14 0 -7 4 -14 8
-14 4 0 9 -6 12 -12 2 -7 2 -3 0 10 -3 20 6 27 31 23 5 -1 4 5 -4 13 -14 18
-25 22 -15 6z"/>
<path d="M11919 10878 c-8 -28 -5 -35 15 -30 18 5 18 7 3 10 -9 2 -15 8 -12
13 4 5 4 9 1 9 -3 0 -6 -1 -7 -2z"/>
<path d="M11986 10867 c3 -10 9 -15 12 -12 3 3 0 11 -7 18 -10 9 -11 8 -5 -6z"/>
<path d="M11985 10800 c3 -5 8 -10 11 -10 2 0 4 5 4 10 0 6 -5 10 -11 10 -5 0
-7 -4 -4 -10z"/>
<path d="M12033 10763 c-7 -3 -13 -12 -13 -21 0 -15 2 -15 17 1 18 18 16 27
-4 20z"/>
<path d="M12548 9933 c7 -3 16 -2 19 1 4 3 -2 6 -13 5 -11 0 -14 -3 -6 -6z"/>
<path d="M12613 9750 c-1 -10 6 -25 15 -32 15 -12 16 -11 4 4 -8 9 -11 22 -8
27 4 5 3 12 -2 15 -4 2 -8 -4 -9 -14z"/>
<path d="M7160 12286 c0 -2 7 -7 16 -10 8 -3 12 -2 9 4 -6 10 -25 14 -25 6z"/>
<path d="M6933 12015 c0 -8 4 -12 9 -9 5 3 6 10 3 15 -9 13 -12 11 -12 -6z"/>
<path d="M7277 11699 c-4 -16 -3 -18 9 -8 7 6 11 15 8 20 -8 13 -11 11 -17
-12z"/>
<path d="M7875 11650 c-3 -6 1 -7 9 -4 18 7 21 14 7 14 -6 0 -13 -4 -16 -10z"/>
<path d="M7710 11526 c-14 -8 -27 -13 -30 -12 -3 1 -21 -13 -40 -31 l-35 -34
68 42 c37 22 67 43 67 45 0 6 -2 5 -30 -10z"/>
<path d="M7645 11510 c-3 -5 -1 -10 4 -10 6 0 11 5 11 10 0 6 -2 10 -4 10 -3
0 -8 -4 -11 -10z"/>
<path d="M7535 11404 l-30 -26 33 22 c17 12 32 23 32 26 0 7 -4 5 -35 -22z"/>
<path d="M7438 11341 c-66 -51 -83 -71 -28 -32 70 49 96 71 85 70 -5 0 -31
-17 -57 -38z"/>
<path d="M7339 11263 c-13 -16 -12 -17 4 -4 16 13 21 21 13 21 -2 0 -10 -8
-17 -17z"/>
<path d="M7194 11138 l-19 -23 23 19 c21 18 27 26 19 26 -2 0 -12 -10 -23 -22z"/>
<path d="M7410 12181 c0 -5 5 -13 10 -16 6 -3 10 -2 10 4 0 5 -4 13 -10 16 -5
3 -10 2 -10 -4z"/>
<path d="M6813 11297 c0 -7 9 -14 20 -14 11 -1 18 -1 16 0 -2 2 -11 8 -20 15
-12 9 -16 9 -16 -1z"/>
<path d="M6316 10905 c-3 -8 -1 -15 4 -15 6 0 10 7 10 15 0 8 -2 15 -4 15 -2
0 -6 -7 -10 -15z"/>
<path d="M6381 10894 c0 -11 3 -14 6 -6 3 7 2 16 -1 19 -3 4 -6 -2 -5 -13z"/>
<path d="M7335 8759 c-4 -6 -5 -12 -2 -15 2 -3 7 2 10 11 7 17 1 20 -8 4z"/>
<path d="M6509 7380 c-13 -43 -9 -56 16 -47 10 4 15 20 15 47 0 51 -16 51 -31
0z"/>
<path d="M9579 6858 c-25 -19 -32 -19 -147 -9 -165 15 -337 14 -468 -4 -61 -8
-120 -11 -132 -8 -25 6 -29 -9 -7 -27 12 -10 31 -10 92 -1 183 28 455 23 610
-11 45 -9 56 -9 78 6 19 13 25 24 23 43 -4 34 -17 37 -49 11z"/>
</g>
</svg>
